<svg width="1025" height="920" xmlns="http://www.w3.org/2000/svg">
 <defs>
  <linearGradient id="a" y2="0%" x2="50%" y1="100%" x1="50%">
   <stop offset="0%" stop-opacity="0.25" stop-color="gray"/>
   <stop offset="54%" stop-opacity="0.12" stop-color="gray"/>
   <stop offset="100%" stop-opacity="0.1" stop-color="gray"/>
  </linearGradient>
  <linearGradient id="b" y2="45815%" x2="79820%" y1="58315%" x1="79820%">
   <stop offset="0%" stop-opacity="0.25" stop-color="gray"/>
   <stop offset="54%" stop-opacity="0.12" stop-color="gray"/>
   <stop offset="100%" stop-opacity="0.1" stop-color="gray"/>
  </linearGradient>
  <linearGradient id="c" y2="11958%" x2="23836%" y1="42830%" x1="23836%">
   <stop offset="0%" stop-opacity="0.25" stop-color="gray"/>
   <stop offset="54%" stop-opacity="0.12" stop-color="gray"/>
   <stop offset="100%" stop-opacity="0.1" stop-color="gray"/>
  </linearGradient>
  <linearGradient id="d" y2="11958%" x2="45908%" y1="42830%" x1="45908%">
   <stop offset="0%" stop-opacity="0.25" stop-color="gray"/>
   <stop offset="54%" stop-opacity="0.12" stop-color="gray"/>
   <stop offset="100%" stop-opacity="0.1" stop-color="gray"/>
  </linearGradient>
  <linearGradient id="e" y2="20458%" x2="51808%" y1="51330%" x1="51808%">
   <stop offset="0%" stop-opacity="0.25" stop-color="gray"/>
   <stop offset="54%" stop-opacity="0.12" stop-color="gray"/>
   <stop offset="100%" stop-opacity="0.1" stop-color="gray"/>
  </linearGradient>
  <linearGradient id="f" y2="41394%" x2="25072%" y1="41394%" x1="23272%">
   <stop offset="0%" stop-opacity="0.25" stop-color="gray"/>
   <stop offset="54%" stop-opacity="0.12" stop-color="gray"/>
   <stop offset="100%" stop-opacity="0.1" stop-color="gray"/>
  </linearGradient>
  <linearGradient id="g" y2="7693%" x2="9923.084%" y1="38593%" x1="8687.367%">
   <stop offset="0%" stop-opacity="0.25" stop-color="gray"/>
   <stop offset="54%" stop-opacity="0.12" stop-color="gray"/>
   <stop offset="100%" stop-opacity="0.1" stop-color="gray"/>
  </linearGradient>
  <linearGradient id="h" y2="55387%" x2="48950%" y1="75783%" x1="48950%">
   <stop offset="0%" stop-opacity="0.25" stop-color="gray"/>
   <stop offset="54%" stop-opacity="0.12" stop-color="gray"/>
   <stop offset="100%" stop-opacity="0.1" stop-color="gray"/>
  </linearGradient>
  <linearGradient id="i" y2="61869%" x2="45884%" y1="82189%" x1="45884%">
   <stop offset="0%" stop-opacity="0.25" stop-color="gray"/>
   <stop offset="54%" stop-opacity="0.12" stop-color="gray"/>
   <stop offset="100%" stop-opacity="0.1" stop-color="gray"/>
  </linearGradient>
  <linearGradient id="j" y2="60521%" x2="41951%" y1="80841%" x1="41951%">
   <stop offset="0%" stop-opacity="0.25" stop-color="gray"/>
   <stop offset="54%" stop-opacity="0.12" stop-color="gray"/>
   <stop offset="100%" stop-opacity="0.1" stop-color="gray"/>
  </linearGradient>
  <linearGradient id="k" y2="51566%" x2="31506%" y1="71886%" x1="31506%">
   <stop offset="0%" stop-opacity="0.25" stop-color="gray"/>
   <stop offset="54%" stop-opacity="0.12" stop-color="gray"/>
   <stop offset="100%" stop-opacity="0.1" stop-color="gray"/>
  </linearGradient>
 </defs>
 <g>
  <title>Layer 1</title>
  <g id="svg_1" fill-rule="evenodd" fill="none">
   <g id="svg_2" fill-rule="nonzero">
    <circle id="svg_3" r="105" cy="629.76" cx="720.55" fill="url(#a)"/>
    <circle id="svg_4" r="100" cy="629.76" cx="720.55" fill="#F5F5F5"/>
    <path id="svg_5" fill="url(#b)" opacity="0.5" d="m723.35,567.3c-32.754,-1.135 -60.822,23.223 -64.31,55.81l-18,0a3.64,3.64 0 0 0 -3.64,3.64l0,6a3.64,3.64 0 0 0 3.64,3.64l18,0c3.54,33.19 32.532,57.74 65.851,55.763c33.319,-1.978 59.204,-29.787 58.792,-63.162c-0.413,-33.375 -26.976,-60.536 -60.333,-61.691z"/>
    <path id="svg_6" fill="#FFF" d="m722.54,571.04c-30.776,-1.045 -57.136,21.851 -60.41,52.47l-17.42,0a2.92,2.92 0 0 0 -2.92,2.92l0,6.68a2.92,2.92 0 0 0 2.92,2.92l17.42,0c3.356,31.192 30.627,54.245 61.942,52.36c31.316,-1.885 55.626,-28.041 55.216,-59.411c-0.41,-31.37 -25.394,-56.883 -56.748,-57.949l0,0.01z"/>
    <circle id="svg_7" r="41.25" cy="629.76" cx="720.55" fill="#A1887F"/>
    <path id="svg_8" opacity="0.2" fill="#FFF" d="m741.8,609.76s11.77,18.28 8.41,32.5c-0.01,0 13.44,-22.34 -8.41,-32.5z"/>
    <circle id="svg_9" r="3.75" cy="652.26" cx="746.8" opacity="0.2" fill="#FFF"/>
    <path id="svg_10" transform="rotate(-12.75 138.061 421.823)" d="m31.426,267.463l213.27,0l0,308.72l-213.27,0l0,-308.72z" fill="url(#c)"/>
    <path id="svg_11" transform="rotate(-12.75 353.36 373.11)" d="m246.725,218.75l213.27,0l0,308.72l-213.27,0l0,-308.72z" fill="url(#d)"/>
    <path id="svg_12" d="m4.185,298.627l203.81,-45.754l66.443,295.97l-203.81,45.754l-66.443,-295.97z" fill="#FFF"/>
    <path id="svg_13" d="m217.64,249.382l202.844,-45.899l66.652,294.563l-202.842,45.899l-66.654,-294.563z" fill="#F5F5F5"/>
    <path id="svg_14" d="m209.548,291.724l21.818,-4.937l0.658,2.907l-21.818,4.937l-0.658,-2.907zm2.31,10.18l21.818,-4.937l0.658,2.907l-21.818,4.937l-0.658,-2.907zm2.302,10.191l21.818,-4.937l0.658,2.907l-21.818,4.937l-0.658,-2.907zm2.3,10.181l21.818,-4.937l0.658,2.907l-21.818,4.937l-0.658,-2.907zm2.31,10.179l21.818,-4.937l0.658,2.907l-21.818,4.937l-0.658,-2.907zm2.3,10.182l21.818,-4.937l0.658,2.907l-21.818,4.937l-0.658,-2.907zm2.309,10.179l21.818,-4.937l0.658,2.907l-21.818,4.937l-0.658,-2.907zm2.302,10.191l21.818,-4.937l0.658,2.907l-21.818,4.937l-0.658,-2.907zm2.309,10.179l21.82,-4.937l0.657,2.907l-21.818,4.937l-0.659,-2.907zm2.3,10.181l21.82,-4.937l0.657,2.907l-21.818,4.937l-0.659,-2.907zm2.311,10.18l21.818,-4.937l0.658,2.907l-21.818,4.937l-0.658,-2.907zm2.302,10.191l21.818,-4.937l0.658,2.907l-21.818,4.937l-0.658,-2.907zm2.3,10.182l21.818,-4.938l0.658,2.907l-21.818,4.937l-0.658,-2.906zm2.3,10.178l21.818,-4.937l0.658,2.907l-21.818,4.937l-0.658,-2.907zm2.3,10.182l21.818,-4.937l0.658,2.907l-21.818,4.937l-0.658,-2.907zm2.312,10.19l21.818,-4.938l0.658,2.907l-21.818,4.937l-0.658,-2.906zm2.3,10.18l21.818,-4.937l0.658,2.907l-21.818,4.937l-0.658,-2.907zm2.31,10.18l21.818,-4.938l0.658,2.907l-21.818,4.937l-0.658,-2.906zm2.3,10.181l21.818,-4.937l0.658,2.907l-21.818,4.937l-0.658,-2.907zm2.311,10.189l21.818,-4.937l0.658,2.907l-21.818,4.937l-0.658,-2.907zm2.3,10.181l21.818,-4.937l0.658,2.907l-21.818,4.937l-0.658,-2.907zm2.3,10.181l21.818,-4.937l0.658,2.907l-21.818,4.937l-0.658,-2.907zm2.31,10.179l21.818,-4.937l0.658,2.907l-21.818,4.937l-0.658,-2.907zm2.3,10.182l21.818,-4.937l0.658,2.907l-21.818,4.937l-0.658,-2.907z" fill="#E0E0E0"/>
    <path id="svg_15" d="m47.136,321.474l121.8,-27.56l4.594,20.296l-121.801,27.56l-4.593,-20.296zm-9.198,53.648l162.394,-36.746l1.148,5.072l-162.395,36.746l-1.147,-5.072zm2.677,11.848l162.394,-36.747l1.148,5.072l-162.394,36.745l-1.148,-5.07zm2.689,11.845l162.394,-36.746l1.148,5.072l-162.395,36.746l-1.147,-5.072zm2.673,11.845l77.813,-17.608l1.147,5.072l-77.813,17.607l-1.147,-5.071zm2.684,11.832l89.654,-20.286l1.147,5.072l-89.653,20.286l-1.148,-5.072zm2.674,11.843l162.394,-36.746l1.148,5.072l-162.394,36.746l-1.148,-5.072zm2.687,11.847l162.395,-36.746l1.147,5.072l-162.394,36.746l-1.148,-5.072zm2.678,11.841l150.554,-34.067l1.148,5.072l-150.554,34.066l-1.148,-5.071zm2.676,11.832l162.394,-36.745l1.148,5.072l-162.394,36.746l-1.148,-5.073zm2.676,11.853l84.582,-19.14l1.148,5.073l-84.582,19.138l-1.148,-5.071zm222.981,-36.228l89.653,-20.286l1.148,5.072l-89.654,20.286l-1.147,-5.072zm2.673,11.842l162.394,-36.746l1.148,5.072l-162.395,36.746l-1.147,-5.072zm2.687,11.838l162.394,-36.747l1.148,5.072l-162.394,36.746l-1.148,-5.071zm2.678,11.84l150.554,-34.067l1.148,5.072l-150.554,34.066l-1.148,-5.071zm2.676,11.842l162.394,-36.746l1.148,5.072l-162.394,36.746l-1.148,-5.072zm2.676,11.844l84.582,-19.14l1.148,5.073l-84.582,19.138l-1.148,-5.071zm-170.881,-16.47l98.11,-22.2l15.312,67.67l-98.11,22.2l-15.312,-67.67zm116.152,-225.433l98.11,-22.2l15.312,67.67l-98.11,22.2l-15.312,-67.67zm96.022,70.732l98.11,-22.2l15.312,67.67l-98.11,22.2l-15.312,-67.67z" opacity="0.3" fill="#294ACE"/>
    <rect id="svg_16" transform="rotate(-12.75 429.661 442.998)" rx="13.44" height="308.72" width="213.27" y="288.638" x="323.026" fill="url(#e)"/>
    <rect id="svg_17" transform="rotate(-12.75 428.689 443.602)" rx="13.44" height="302.01" width="207.97" y="292.597" x="324.704" fill="#294ACE"/>
    <path id="svg_18" d="m288.781,360.952l21.818,-4.937l0.658,2.907l-21.818,4.937l-0.658,-2.907zm2.31,10.179l21.818,-4.937l0.658,2.907l-21.818,4.937l-0.658,-2.907zm2.299,10.181l21.82,-4.937l0.657,2.907l-21.818,4.937l-0.659,-2.907zm2.313,10.189l21.818,-4.937l0.658,2.907l-21.818,4.937l-0.658,-2.907zm2.3,10.182l21.818,-4.937l0.658,2.907l-21.818,4.937l-0.658,-2.907zm2.309,10.179l21.818,-4.937l0.658,2.907l-21.818,4.937l-0.658,-2.907zm2.3,10.181l21.818,-4.937l0.658,2.907l-21.818,4.937l-0.658,-2.907zm2.3,10.179l21.818,-4.937l0.658,2.907l-21.818,4.937l-0.658,-2.907zm2.302,10.191l21.818,-4.937l0.658,2.907l-21.818,4.937l-0.658,-2.907zm2.3,10.182l21.818,-4.937l0.658,2.907l-21.818,4.937l-0.658,-2.907zm2.31,10.179l21.818,-4.937l0.658,2.907l-21.818,4.937l-0.658,-2.907zm2.3,10.181l21.818,-4.937l0.658,2.907l-21.818,4.937l-0.658,-2.907zm2.312,10.189l21.818,-4.937l0.658,2.907l-21.818,4.937l-0.658,-2.907zm2.3,10.182l21.818,-4.937l0.658,2.907l-21.818,4.937l-0.658,-2.907zm2.31,10.179l21.818,-4.937l0.658,2.907l-21.818,4.937l-0.658,-2.907zm2.3,10.181l21.818,-4.937l0.658,2.907l-21.818,4.937l-0.658,-2.907zm2.312,10.189l21.818,-4.937l0.658,2.907l-21.818,4.937l-0.658,-2.907zm2.3,10.182l21.818,-4.937l0.658,2.907l-21.818,4.937l-0.658,-2.907zm2.3,10.181l21.818,-4.937l0.658,2.907l-21.818,4.937l-0.658,-2.907zm2.309,10.179l21.818,-4.937l0.658,2.907l-21.818,4.937l-0.658,-2.907zm2.293,10.191l21.818,-4.937l0.658,2.907l-21.818,4.937l-0.658,-2.907zm2.309,10.179l21.818,-4.937l0.658,2.907l-21.818,4.937l-0.658,-2.907zm2.3,10.183l21.818,-4.938l0.658,2.907l-21.818,4.937l-0.658,-2.906zm2.31,10.178l21.818,-4.937l0.658,2.907l-21.818,4.937l-0.658,-2.907z" fill="#BDBDBD"/>
    <path id="svg_19" d="m170.46,572.393l9.754,-2.206l20.083,88.756l-9.753,2.207l-20.084,-88.757z" fill="#69F0AE"/>
    <path id="svg_20" transform="rotate(-12.75 1587.47 -320.922)" fill="url(#f)" opacity="0.5" d="m4.246,200.639l18,0l0,46l-18,0l0,-46z"/>
    <path id="svg_21" d="m160.292,538.808l14.63,-3.31l9.49,41.94l-14.63,3.31l-9.49,-41.94z" fill="#69F0AE"/>
    <path id="svg_22" d="m160.292,538.808l14.63,-3.31l9.49,41.94l-14.63,3.31l-9.49,-41.94z" opacity="0.3" fill="#FFF"/>
    <path id="svg_23" d="m192.278,659.729l5.852,-1.324l1.324,5.852l-5.852,1.324l-1.324,-5.852zm-28.518,-112.489l-3.9,0.88l-1.95,0.44l0.44,1.95l3.75,16.58l1.95,-0.44l-3.75,-16.58l3.9,-0.88l-0.44,-1.95z" fill="#69F0AE"/>
    <path id="svg_24" d="m163.76,547.24l-3.9,0.88l-1.95,0.44l0.44,1.95l3.75,16.58l1.95,-0.44l-3.75,-16.58l3.9,-0.88l-0.44,-1.95z" opacity="0.3" fill="#FFF"/>
    <g id="svg_25" fill="#47E6B1" opacity="0.5">
     <path id="svg_26" d="m183.55,853.76l3,0l0,17l-3,0l0,-17z"/>
     <path id="svg_27" d="m193.55,860.76l0,3l-17,0l0,-3l17,0z"/>
    </g>
    <g id="svg_28" fill="#47E6B1" opacity="0.5">
     <path id="svg_29" d="m726.55,231.76l3,0l0,17l-3,0l0,-17z"/>
     <path id="svg_30" d="m736.55,238.76l0,3l-17,0l0,-3l17,0z"/>
    </g>
    <g id="svg_31" fill="#47E6B1" opacity="0.5">
     <path id="svg_32" d="m636.55,448.76l3,0l0,17l-3,0l0,-17z"/>
     <path id="svg_33" d="m646.55,455.76l0,3l-17,0l0,-3l17,0z"/>
    </g>
    <g id="svg_34" fill="#47E6B1" opacity="0.5">
     <path id="svg_35" d="m894.15,487.76l3,0l0,17l-3,0l0,-17z"/>
     <path id="svg_36" d="m904.15,494.77l0,3l-17,0l0,-3l17,0z"/>
    </g>
    <path id="svg_37" opacity="0.5" fill="#4D8AF0" d="m358.24,852.11a3.67,3.67 0 0 1 -2,-4.44c0.043,-0.133 0.07,-0.27 0.08,-0.41a1.84,1.84 0 0 0 -3.31,-1.22a1.77,1.77 0 0 0 -0.2,0.36a3.67,3.67 0 0 1 -4.44,2a1.77,1.77 0 0 0 -0.41,-0.08a1.84,1.84 0 0 0 -1.22,3.31c0.112,0.08 0.233,0.148 0.36,0.2a3.67,3.67 0 0 1 2,4.44a1.77,1.77 0 0 0 -0.08,0.41a1.84,1.84 0 0 0 3.33,1.23a1.77,1.77 0 0 0 0.2,-0.36a3.67,3.67 0 0 1 4.44,-2c0.133,0.043 0.27,0.07 0.41,0.08a1.84,1.84 0 0 0 1.22,-3.31a1.77,1.77 0 0 0 -0.38,-0.21zm183,12a3.67,3.67 0 0 1 -2,-4.44c0.043,-0.133 0.07,-0.27 0.08,-0.41a1.84,1.84 0 0 0 -3.31,-1.22a1.77,1.77 0 0 0 -0.2,0.36a3.67,3.67 0 0 1 -4.44,2a1.77,1.77 0 0 0 -0.41,-0.08a1.84,1.84 0 0 0 -1.22,3.31c0.112,0.08 0.233,0.148 0.36,0.2a3.67,3.67 0 0 1 2,4.44a1.77,1.77 0 0 0 -0.08,0.41a1.84,1.84 0 0 0 3.33,1.23a1.77,1.77 0 0 0 0.2,-0.36a3.67,3.67 0 0 1 4.44,-2c0.133,0.043 0.27,0.07 0.41,0.08a1.84,1.84 0 0 0 1.22,-3.31a1.77,1.77 0 0 0 -0.38,-0.21zm219,-431a3.67,3.67 0 0 1 -2,-4.44c0.043,-0.133 0.07,-0.27 0.08,-0.41a1.84,1.84 0 0 0 -3.31,-1.22a1.77,1.77 0 0 0 -0.2,0.36a3.67,3.67 0 0 1 -4.44,2a1.77,1.77 0 0 0 -0.41,-0.08a1.84,1.84 0 0 0 -1.22,3.31c0.112,0.08 0.233,0.148 0.36,0.2a3.67,3.67 0 0 1 2,4.44a1.77,1.77 0 0 0 -0.08,0.41a1.84,1.84 0 0 0 3.33,1.23a1.77,1.77 0 0 0 0.2,-0.36a3.67,3.67 0 0 1 4.44,-2c0.133,0.043 0.27,0.07 0.41,0.08a1.84,1.84 0 0 0 1.22,-3.31a1.77,1.77 0 0 0 -0.38,-0.21zm152,161a3.67,3.67 0 0 1 -2,-4.44c0.043,-0.133 0.07,-0.27 0.08,-0.41a1.84,1.84 0 0 0 -3.31,-1.22a1.77,1.77 0 0 0 -0.2,0.36a3.67,3.67 0 0 1 -4.44,2a1.77,1.77 0 0 0 -0.41,-0.08a1.84,1.84 0 0 0 -1.22,3.31c0.112,0.08 0.233,0.148 0.36,0.2a3.67,3.67 0 0 1 2,4.44a1.77,1.77 0 0 0 -0.08,0.41a1.84,1.84 0 0 0 3.33,1.23a1.77,1.77 0 0 0 0.2,-0.36a3.67,3.67 0 0 1 4.44,-2c0.133,0.043 0.27,0.07 0.41,0.08a1.84,1.84 0 0 0 1.22,-3.31a1.77,1.77 0 0 0 -0.38,-0.21z"/>
    <circle id="svg_38" r="6" cy="798.76" cx="105.55" opacity="0.5" fill="#F55F44"/>
    <circle id="svg_39" r="6" cy="249.76" cx="523.55" opacity="0.5" fill="#4D8AF0"/>
    <circle id="svg_40" r="6" cy="688.76" cx="498.55" opacity="0.5" fill="#47E6B1"/>
    <circle id="svg_41" r="6" cy="838.76" cx="844.55" opacity="0.5" fill="#F55F44"/>
    <path id="svg_42" transform="rotate(-73.39 516.036 -156.995)" fill="url(#g)" opacity="0.5" d="m-21.814,283.083l286,0a6.28,6.28 0 0 1 6.28,6.28l0,152.94a6.29,6.29 0 0 1 -6.29,6.29l-286,0a6.28,6.28 0 0 1 -6.28,-6.28l0,-152.93a6.28,6.28 0 0 1 6.29,-6.3z"/>
    <rect id="svg_43" transform="rotate(16.809 904.943 375.3)" rx="13.64" height="291.467" width="161.478" y="229.566" x="824.204" fill="#FFF"/>
    <path id="svg_44" fill="#E0E0E0" d="m982.5,250.11a13.05,13.05 0 0 1 -15.5,7l-53.29,-16a13.05,13.05 0 0 1 -9.15,-14.32l-28.21,-8.37a6.12,6.12 0 0 0 -7.61,4.11l-75.47,252.82a6.12,6.12 0 0 0 4.11,7.61l134.84,40.23a6.12,6.12 0 0 0 7.61,-4.11l75.44,-252.82a6.12,6.12 0 0 0 -4.11,-7.61l-28.66,-8.54z"/>
    <rect id="svg_45" transform="rotate(15.89 941.044 242.496)" rx="1.12" height="2.24" width="35.88" y="241.376" x="923.104" fill="#DBDBDB"/>
    <circle id="svg_46" transform="rotate(-74.11 965.645 249.297)" r="1.35" cy="249.297" cx="965.645" fill="#DBDBDB"/>
    <path id="svg_47" d="m871.586,268.416l42.42,11.685l-10.091,36.635l-42.42,-11.684l10.091,-36.636z" fill="#FFF"/>
    <path id="svg_48" d="m856.97,321.433l42.42,11.685l-10.09,36.635l-42.42,-11.684l10.09,-36.636z" opacity="0.3" fill="#294ACE"/>
    <path id="svg_49" d="m842.371,374.472l42.42,11.684l-10.09,36.636l-42.42,-11.685l10.09,-36.635z" fill="#FFF"/>
    <path id="svg_50" d="m827.767,427.488l42.42,11.684l-10.091,36.636l-42.42,-11.684l10.091,-36.636z" opacity="0.3" fill="#3AD29F"/>
    <path id="svg_51" d="m922.216,291.7l55.918,15.403l-1.062,3.856l-55.918,-15.402l1.062,-3.857zm-3.188,11.569l55.918,15.402l-1.062,3.856l-55.918,-15.402l1.062,-3.856zm-11.152,40.485l55.918,15.402l-1.062,3.856l-55.918,-15.402l1.062,-3.856zm-3.188,11.576l55.918,15.403l-1.062,3.856l-55.918,-15.402l1.062,-3.857zm-11.152,40.487l55.918,15.402l-1.062,3.856l-55.918,-15.402l1.062,-3.856zm-3.188,11.567l55.918,15.402l-1.062,3.856l-55.918,-15.402l1.062,-3.856zm-11.152,40.495l55.918,15.402l-1.062,3.856l-55.918,-15.402l1.062,-3.856zm-3.188,11.568l55.918,15.402l-1.062,3.856l-55.918,-15.402l1.062,-3.856z" fill="#FFF"/>
    <path id="svg_52" transform="rotate(-52.76 759.191 258.72)" fill="url(#h)" opacity="0.5" d="m-16.015,267.962l203.96,0l0,62.36l-203.96,0l0,-62.36z"/>
    <path id="svg_53" d="m421.713,721.463l47.201,35.88l-121.775,160.2l-47.201,-35.88l121.775,-160.2z" fill="#E0E0E0"/>
    <path id="svg_54" d="m426.718,729.335l33.365,25.362l-25.362,33.365l-33.365,-25.362l25.362,-33.365z" fill="#4D8AF0"/>
    <path id="svg_55" d="m396.105,769.622l33.364,25.362l-25.362,33.365l-33.364,-25.362l25.362,-33.365z" opacity="0.5" fill="#4D8AF0"/>
    <path id="svg_56" d="m365.475,809.904l33.365,25.362l-25.363,33.365l-33.364,-25.363l25.362,-33.364z" opacity="0.3" fill="#4D8AF0"/>
    <path id="svg_57" transform="rotate(-71.1 560.11 358.69)" fill="url(#i)" opacity="0.5" d="m-39.229,274.12l203.2,0l0,62.36l-203.2,0l0,-62.36z"/>
    <path id="svg_58" d="m353.227,708l56.094,19.206l-64.936,189.662l-56.093,-19.206l64.935,-189.662z" fill="#F5F5F5"/>
    <path id="svg_59" d="m360.438,713.89l39.65,13.576l-13.575,39.65l-39.65,-13.575l13.575,-39.651z" fill="#FF5252"/>
    <path id="svg_60" d="m344.055,761.761l39.65,13.576l-13.575,39.65l-39.65,-13.575l13.575,-39.651z" opacity="0.5" fill="#FF5252"/>
    <path id="svg_61" d="m327.66,809.64l39.65,13.575l-13.575,39.65l-39.65,-13.574l13.575,-39.651z" opacity="0.3" fill="#FF5252"/>
    <path id="svg_62" transform="rotate(-82.8 474.298 396.023)" fill="url(#j)" opacity="0.5" d="m-58.408,273.045l203.2,0l0,62.36l-203.2,0l0,-62.36z"/>
    <path id="svg_63" d="m312.91,709.15l58.822,7.43l-25.126,198.89l-58.822,-7.43l25.126,-198.89z" fill="#F5F5F5"/>
    <path id="svg_64" d="m321.135,713.455l41.58,5.253l-5.254,41.58l-41.58,-5.254l5.254,-41.579z" fill="#69F0AE"/>
    <path id="svg_65" d="m314.793,763.654l41.58,5.253l-5.254,41.58l-41.58,-5.254l5.254,-41.579z" opacity="0.5" fill="#69F0AE"/>
    <path id="svg_66" d="m308.45,813.853l41.58,5.253l-5.253,41.58l-41.58,-5.254l5.253,-41.579z" opacity="0.3" fill="#69F0AE"/>
    <path id="svg_67" fill="url(#k)" opacity="0.5" d="m283.88,714.66l62.36,0l0,203.2l-62.36,0l0,-203.2z"/>
    <path id="svg_68" d="m285.92,716.02l59.29,0l0,200.47l-59.29,0l0,-200.47z" fill="#FFF"/>
    <path id="svg_69" d="m294.61,719.26l41.91,0l0,41.91l-41.91,0l0,-41.91z" fill="#294ACE"/>
    <path id="svg_70" d="m294.61,769.86l41.91,0l0,41.91l-41.91,0l0,-41.91z" opacity="0.5" fill="#294ACE"/>
    <path id="svg_71" d="m294.61,820.47l41.91,0l0,41.91l-41.91,0l0,-41.91z" opacity="0.3" fill="#294ACE"/>
   </g>
   <path id="svg_72" fill="#262B3A" d="m377.21,96c-9.766,0 -18.31,-3.052 -25.635,-9.155c-7.324,-6.104 -10.986,-14.038 -10.986,-23.804l0,-7.324c0,-9.766 3.662,-17.7 10.986,-23.804c7.324,-6.103 15.894,-9.155 25.708,-9.155c11.719,0 21.46,4.15 29.224,12.451l-14.649,10.986c-4.394,-4.394 -9.277,-6.591 -14.648,-6.591c-4.883,0 -9.155,1.953 -12.817,5.859c-3.663,3.906 -5.494,8.545 -5.494,13.916s1.71,10.01 5.127,13.916c3.418,3.906 7.813,5.86 13.184,5.86c5.371,0 10.254,-2.198 14.648,-6.593l14.649,10.987c-7.813,8.3 -17.578,12.451 -29.297,12.451zm45.337,-64.453c9.277,-5.86 20.02,-8.79 32.226,-8.79c8.79,0 15.747,2.442 20.874,7.325c5.127,4.883 7.69,12.207 7.69,21.973l0,43.945l-20.507,0l0,-5.86c-5.957,3.907 -11.328,5.86 -16.113,5.86c-9.766,0 -17.09,-2.075 -21.973,-6.226c-4.883,-4.15 -7.324,-9.887 -7.324,-17.212c0,-6.835 2.307,-12.939 6.921,-18.31c4.615,-5.371 12.073,-8.057 22.376,-8.057c4.736,0 10.107,1.465 16.113,4.395l0,-2.197c-0.098,-5.372 -4.004,-8.301 -11.719,-8.79c-8.789,0 -15.625,1.465 -20.507,4.395l-8.057,-12.451zm40.283,42.48l0,-8.276c-1.953,-3.76 -6.592,-5.64 -13.916,-5.64c-8.789,0.977 -13.428,4.395 -13.916,10.254c0.488,5.81 5.127,8.96 13.916,9.448c7.324,0 11.963,-1.928 13.916,-5.786zm57.715,-43.213c5.225,-5.37 11.597,-8.056 19.116,-8.056c2.393,0 4.663,0.195 6.812,0.586l-3.223,20.215c-2.393,-2.149 -5.81,-3.296 -10.254,-3.443c-4.98,0.342 -9.13,3.955 -12.451,10.84l0,45.044l-20.508,0l0,-71.118l20.508,-2.197l0,8.13l0,-0.001zm84.595,61.744c-3.516,2.295 -7.544,3.442 -12.085,3.442c-8.301,0 -14.893,-2.32 -19.776,-6.958c-4.883,-4.639 -7.324,-10.62 -7.324,-17.944l0,-31.714l-10.985,0l0,-16.554l10.986,0l0,-19.848l20.58,-2.197l0,22.046l10.986,0l0,16.553l-10.986,0l0,28.784c0,3.906 0.818,6.653 2.454,8.24c1.635,1.587 3.747,2.38 6.335,2.38c0.781,0 2.612,-0.317 5.493,-0.952l4.322,14.722zm13.842,-61.011c9.278,-5.86 20.02,-8.79 32.227,-8.79c8.79,0 15.747,2.442 20.874,7.325c5.127,4.883 7.69,12.207 7.69,21.973l0,43.945l-20.507,0l0,-5.86c-5.957,3.907 -11.328,5.86 -16.114,5.86c-9.765,0 -17.09,-2.075 -21.972,-6.226c-4.883,-4.15 -7.325,-9.887 -7.325,-17.212c0,-6.835 2.308,-12.939 6.922,-18.31c4.614,-5.371 12.073,-8.057 22.375,-8.057c4.737,0 10.108,1.465 16.114,4.395l0,-2.197c-0.098,-5.372 -4.004,-8.301 -11.72,-8.79c-8.788,0 -15.624,1.465 -20.507,4.395l-8.057,-12.451zm40.284,42.48l0,-8.276c-1.954,-3.76 -6.592,-5.64 -13.916,-5.64c-8.79,0.977 -13.428,4.395 -13.916,10.254c0.488,5.81 5.127,8.96 13.916,9.448c7.324,0 11.962,-1.928 13.916,-5.786z"/>
  </g>
  <path id="svg_77" d="m408.89998,47.15c38,61 49,25 49,25c0,0 -48,10 -13,15c35,5 -22,23 -22.89998,22.85" opacity="NaN" stroke="#000" fill="#fff"/>
  <rect stroke-width="0" id="svg_78" height="170" width="618.99999" y="-0.85" x="221.89998" stroke="#000" fill="#fff"/>
  <text transform="matrix(2.19012 0 0 2.76514 -446.717 -152.642)" stroke="#000" xml:space="preserve" text-anchor="start" font-family="Noto Sans JP" font-size="24" id="svg_80" y="92.72124" x="299.35055" stroke-width="0" fill="#000000">Chia sẻ kiến thức công nghệ</text>
 </g>
</svg>